<?xml version="1.0" encoding="utf-8"?>
<!-- Generator: Adobe Illustrator 22.0.1, SVG Export Plug-In . SVG Version: 6.00 Build 0)  -->
<svg version="1.1" xmlns="http://www.w3.org/2000/svg" xmlns:xlink="http://www.w3.org/1999/xlink" x="0px" y="0px"
	 viewBox="0 0 96 96" style="enable-background:new 0 0 96 96;" xml:space="preserve">
<style type="text/css">
	.st0{fill:#CDDC3A;}
	.st1{fill:#223344;}
	.st2{display:none;}
	.st3{display:inline;fill:#FFFFFF;}
</style>
<g id="Layer_1">
	<g>
		<g>
			<circle class="st0" cx="49.2" cy="47.1" r="36.2"/>
		</g>
		<g>
			<g>
				<path class="st1" d="M81.9,14.1c-18.7-18.7-49.1-18.7-67.9,0c-18.7,18.7-18.7,49.1,0,67.9c18.7,18.7,49.1,18.7,67.9,0
					C100.7,63.2,100.7,32.8,81.9,14.1z M63.7,70L48.6,54.9l-8.2,8.2c-1.9,1.9-4.6,3.1-7.5,3.1c-5.9,0-10.7-4.8-10.7-10.7
					c0-2.9,1.2-5.6,3.1-7.5L48,25.4l0,0c1.9-1.9,4.6-3.1,7.5-3.1c5.9,0,10.7,4.8,10.7,10.7c0,2.9-1.2,5.6-3.1,7.5l-8.2,8.2L70,63.7
					L63.7,70z"/>
				<path class="st1" d="M29.1,51.8c-2.1,2.1-2.1,5.5,0,7.5c2.1,2.1,5.5,2.1,7.5,0c2.1-2.1,2.1-5.5,0-7.5S31.2,49.7,29.1,51.8z"/>
				<path class="st1" d="M59.3,36.7c2.1-2.1,2.1-5.5,0-7.5s-5.5-2.1-7.5,0c-2.1,2.1-2.1,5.5,0,7.5C53.9,38.8,57.2,38.8,59.3,36.7z"
					/>
				<circle class="st1" cx="55.5" cy="32.9" r="5.3"/>
				<circle class="st1" cx="32.9" cy="55.5" r="5.3"/>
			</g>
		</g>
	</g>
</g>
<g id="masks" class="st2">
	<path class="st3" d="M248,248h-400v-400h400V248z M248,48L248,48c0-110.5-89.5-200-200-200h0c-110.5,0-200,89.5-200,200v0
		c0,110.5,89.5,200,200,200h0C158.5,248,248,158.5,248,48z"/>
	<path class="st3" d="M697,248H297v-400h400V248z M697,48L697,48c0-110.5-89.5-200-200-200h0c-110.5,0-200,89.5-200,200v0
		c0,110.5,89.5,200,200,200h0C607.5,248,697,158.5,697,48z"/>
	<path class="st3" d="M248,703h-400V303h400V703z M248,503L248,503c0-110.5-89.5-200-200-200h0c-110.5,0-200,89.5-200,200v0
		c0,110.5,89.5,200,200,200h0C158.5,703,248,613.5,248,503z"/>
	<path class="st3" d="M697,703H297V303h400V703z M697,503L697,503c0-110.5-89.5-200-200-200h0c-110.5,0-200,89.5-200,200v0
		c0,110.5,89.5,200,200,200h0C607.5,703,697,613.5,697,503z"/>
</g>
</svg>
